<svg xmlns="http://www.w3.org/2000/svg" viewBox="1989 -5411 40 38.279">
  <defs>
    <style>
      .cls-1 {
        fill: #8cbe43;
      }
    </style>
  </defs>
  <g id="benefits-presentation" transform="translate(1989 -5411)">
    <path id="Path_516" data-name="Path 516" class="cls-1" d="M93.4,123.8H88.876a1.023,1.023,0,0,0-.723,1.746l1.283,1.281L85.6,130.66,81.3,126.443a2.2,2.2,0,0,0-2.344-.478l-5.4,2.119H68a1.383,1.383,0,1,0,0,2.766h5.655a2.181,2.181,0,0,0,.8-.152l5.159-2.024,4.447,4.356a2.209,2.209,0,0,0,3.094-.016l4.229-4.23,1.282,1.283a1.022,1.022,0,0,0,1.746-.723v-4.521A1.023,1.023,0,0,0,93.4,123.8Z" transform="translate(-61.239 -114.663)"/>
    <path id="Path_517" data-name="Path 517" class="cls-1" d="M34.633,10.653H5.366A5.373,5.373,0,0,0,0,16.02V32.036A5.373,5.373,0,0,0,5.366,37.4h7.987L8.935,45.9a2.076,2.076,0,1,0,3.683,1.914L17.9,37.555v5.151a2.075,2.075,0,0,0,4.15,0V37.555l5.335,10.259A2.076,2.076,0,0,0,31.065,45.9l-4.418-8.5h7.986A5.373,5.373,0,0,0,40,32.036V16.02A5.374,5.374,0,0,0,34.633,10.653Zm1.216,21.382a1.217,1.217,0,0,1-1.216,1.216H5.366A1.217,1.217,0,0,1,4.15,32.035V16.02A1.217,1.217,0,0,1,5.366,14.8H34.633a1.217,1.217,0,0,1,1.216,1.216V32.035Z" transform="translate(0 -10.653)"/>
  </g>
</svg>
