<svg xmlns="http://www.w3.org/2000/svg" viewBox="1989 -5342 40 39.968">
  <defs>
    <style>
      .cls-1 {
        fill: #8cbe43;
      }
    </style>
  </defs>
  <g id="_033-grass" data-name="033-grass" transform="translate(1989 -5342)">
    <g id="Group_548" data-name="Group 548" transform="translate(14.394 0)">
      <g id="Group_547" data-name="Group 547">
        <path id="Path_274" data-name="Path 274" class="cls-1" d="M190.827.7a1.216,1.216,0,0,0-1.952,0,27.533,27.533,0,0,0-4.63,12.017,29.387,29.387,0,0,1,5.606,7.383,29.393,29.393,0,0,1,5.606-7.383A28.212,28.212,0,0,0,190.827.7Z" transform="translate(-184.245 -0.205)"/>
      </g>
    </g>
    <g id="Group_550" data-name="Group 550" transform="translate(0 35.28)">
      <g id="Group_549" data-name="Group 549">
        <path id="Path_275" data-name="Path 275" class="cls-1" d="M37.656,451.795H2.344A2.344,2.344,0,0,0,0,454.139v1.172a1.172,1.172,0,0,0,1.172,1.172H38.828A1.172,1.172,0,0,0,40,455.311v-1.172A2.344,2.344,0,0,0,37.656,451.795Z" transform="translate(0 -451.795)"/>
      </g>
    </g>
    <g id="Group_552" data-name="Group 552" transform="translate(29.887 24.355)">
      <g id="Group_551" data-name="Group 551">
        <path id="Path_276" data-name="Path 276" class="cls-1" d="M392.416,312.4a1.172,1.172,0,0,0-1.254-.394,11.853,11.853,0,0,0-8.6,8.532h8.026a12,12,0,0,1,1.932-6.828A1.172,1.172,0,0,0,392.416,312.4Z" transform="translate(-382.557 -311.954)"/>
      </g>
    </g>
    <g id="Group_554" data-name="Group 554" transform="translate(0 24.355)">
      <g id="Group_553" data-name="Group 553">
        <path id="Path_277" data-name="Path 277" class="cls-1" d="M10.113,320.535A11.857,11.857,0,0,0,1.509,312a1.172,1.172,0,0,0-1.354,1.7,12.077,12.077,0,0,1,1.932,6.828Z" transform="translate(0 -311.954)"/>
      </g>
    </g>
    <g id="Group_556" data-name="Group 556" transform="translate(14.663 25.781)">
      <g id="Group_555" data-name="Group 555">
        <path id="Path_278" data-name="Path 278" class="cls-1" d="M191.816,337.354a10.514,10.514,0,0,0-3.6-7.156,15.156,15.156,0,0,1-.54,7.156Z" transform="translate(-187.68 -330.198)"/>
      </g>
    </g>
    <g id="Group_558" data-name="Group 558" transform="translate(4.766 9.499)">
      <g id="Group_557" data-name="Group 557">
        <path id="Path_279" data-name="Path 279" class="cls-1" d="M91.049,122.06a1.171,1.171,0,0,0-1.341-.113,27.177,27.177,0,0,0-13.472,16.341,27.825,27.825,0,0,0-13.472-16.341,1.172,1.172,0,0,0-1.691,1.413c.636,2.127,3.042,6.659,3.2,14.164a14.076,14.076,0,0,1,4.3,7.126,12.82,12.82,0,0,0-.2-8.9l-.254-.635a1.172,1.172,0,0,1,1.838-1.337l2.814,2.346a12.868,12.868,0,0,1,3.467,4.537,12.865,12.865,0,0,1,3.467-4.537l2.813-2.346a1.172,1.172,0,0,1,1.838,1.337l-.255.636a12.819,12.819,0,0,0-.2,8.9,14.076,14.076,0,0,1,4.3-7.125c.155-7.51,2.566-12.055,3.2-14.164A1.171,1.171,0,0,0,91.049,122.06Z" transform="translate(-61.001 -121.787)"/>
      </g>
    </g>
    <g id="Group_560" data-name="Group 560" transform="translate(21.202 25.781)">
      <g id="Group_559" data-name="Group 559">
        <path id="Path_280" data-name="Path 280" class="cls-1" d="M274.977,330.2a10.509,10.509,0,0,0-3.6,7.156h4.136A15.157,15.157,0,0,1,274.977,330.2Z" transform="translate(-271.381 -330.198)"/>
      </g>
    </g>
  </g>
</svg>
