<svg xmlns="http://www.w3.org/2000/svg" viewBox="1992 -4928 35 45.949">
  <defs>
    <style>
      .cls-1 {
        fill: #8cbe43;
      }
    </style>
  </defs>
  <g id="Group_1016" data-name="Group 1016" transform="translate(1992 -4928)">
    <g id="_035-recycled-paper" data-name="035-recycled-paper" transform="translate(0 0)">
      <g id="Group_594" data-name="Group 594" transform="translate(8.077 18.936)">
        <g id="Group_593" data-name="Group 593" transform="translate(0)">
          <path id="Path_296" data-name="Path 296" class="cls-1" d="M152.346,211H151v1.346a6.739,6.739,0,0,0,6.731,6.731h1.346v-1.346A6.739,6.739,0,0,0,152.346,211Z" transform="translate(-151 -211)"/>
        </g>
      </g>
      <g id="Group_596" data-name="Group 596" transform="translate(0.789 0.789)">
        <g id="Group_595" data-name="Group 595" transform="translate(0)">
          <path id="Path_297" data-name="Path 297" class="cls-1" d="M69.789,16.077h7.288V8.789Z" transform="translate(-69.789 -8.789)"/>
        </g>
      </g>
      <g id="Group_598" data-name="Group 598" transform="translate(18.846 18.936)">
        <g id="Group_597" data-name="Group 597">
          <path id="Path_298" data-name="Path 298" class="cls-1" d="M277.731,211A6.739,6.739,0,0,0,271,217.731v1.346h1.346a6.739,6.739,0,0,0,6.731-6.731V211Z" transform="translate(-271 -211)"/>
        </g>
      </g>
      <g id="Group_600" data-name="Group 600" transform="translate(11.793 35.09)">
        <g id="Group_599" data-name="Group 599" transform="translate(0)">
          <path id="Path_299" data-name="Path 299" class="cls-1" d="M198.527,391h-.8a6.643,6.643,0,0,0-5.314,2.692h11.428A6.725,6.725,0,0,0,198.527,391Z" transform="translate(-192.411 -391)"/>
        </g>
      </g>
      <g id="Group_602" data-name="Group 602" transform="translate(0)">
        <g id="Group_601" data-name="Group 601" transform="translate(0)">
          <path id="Path_300" data-name="Path 300" class="cls-1" d="M94.654,0H71.769V9.423a1.346,1.346,0,0,1-1.346,1.346H61V44.6a1.345,1.345,0,0,0,1.346,1.346H94.654A1.345,1.345,0,0,0,96,44.6V1.346A1.345,1.345,0,0,0,94.654,0ZM78.5,5.385H89.269a1.346,1.346,0,1,1,0,2.692H78.5a1.346,1.346,0,0,1,0-2.692Zm0,5.385H89.269a1.346,1.346,0,1,1,0,2.692H78.5a1.346,1.346,0,1,1,0-2.692ZM89.365,40.474H67.731a1.346,1.346,0,1,1,0-2.692h1.86l.088-.176a9.42,9.42,0,0,1,7.565-5.146V29.705H75.808a9.434,9.434,0,0,1-9.423-9.423V17.59a1.345,1.345,0,0,1,1.346-1.346h2.692A9.394,9.394,0,0,1,78.5,20.891a9.394,9.394,0,0,1,8.077-4.647h2.692a1.345,1.345,0,0,1,1.346,1.346v2.692a9.434,9.434,0,0,1-9.423,9.423H79.936v2.763a9.4,9.4,0,0,1,7.46,5.258l.027.055h1.943a1.346,1.346,0,1,1,0,2.692Z" transform="translate(-61)"/>
        </g>
      </g>
    </g>
  </g>
</svg>
