<svg xmlns="http://www.w3.org/2000/svg" viewBox="1991 -5537 35.609 30.841">
  <defs>
    <style>
      .cls-1, .cls-2, .cls-5 {
        fill: none;
      }

      .cls-2 {
        stroke: #8cbe43;
        stroke-width: 2px;
      }

      .cls-3, .cls-4 {
        stroke: none;
      }

      .cls-4 {
        fill: #8cbe43;
      }
    </style>
  </defs>
  <g id="Group_1022" data-name="Group 1022" transform="translate(-2362.998 -3511.625)">
    <g id="Path_1014" data-name="Path 1014" class="cls-1" transform="translate(4245 -2111)">
      <path class="cls-3" d="M126.8,85.625l17.805,30.841H109Z"/>
      <path class="cls-4" d="M 141.1431121826172 114.4660797119141 L 126.801887512207 89.62504577636719 L 112.4621276855469 114.4657211303711 L 141.1431121826172 114.4660797119141 M 144.6071472167969 116.4661178588867 L 108.9982986450195 116.4656829833984 L 126.8018112182617 85.62476348876953 L 144.6071472167969 116.4661178588867 Z"/>
    </g>
    <g id="Ellipse_7" data-name="Ellipse 7" class="cls-2" transform="translate(4361.495 -2015.172)">
      <ellipse class="cls-3" cx="10.319" cy="10.253" rx="10.319" ry="10.253"/>
      <ellipse class="cls-5" cx="10.319" cy="10.253" rx="9.319" ry="9.253"/>
    </g>
    <g id="Group_1020" data-name="Group 1020" transform="translate(4361.488 -2015.216)">
      <g id="Path_1015" data-name="Path 1015" class="cls-1" transform="translate(7.063 9.613)">
        <path class="cls-3" d="M3.046,0S6.093,2.468,6.093,5.512s-3.046,5.512-3.046,5.512S0,8.557,0,5.512,3.046,0,3.046,0Z"/>
        <path class="cls-4" d="M 3.044250726699829 9.648021697998047 C 3.835197687149048 8.820130348205566 5.09254264831543 7.233114242553711 5.09254264831543 5.512307643890381 C 5.09254264831543 3.779344320297241 3.839529752731323 2.200593233108521 3.048349618911743 1.37653636932373 C 2.257402658462524 2.204427003860474 1.000002503395081 3.791500806808472 1.000002503395081 5.512307643890381 C 1.000002503395081 7.2449631690979 2.252543449401855 8.823433876037598 3.044250726699829 9.648021697998047 M 3.04627251625061 11.02461719512939 C 3.04627251625061 11.02461719512939 2.516250560802291e-06 8.556667327880859 2.516250560802291e-06 5.512307643890381 C 2.516250560802291e-06 2.467947721481323 3.04627251625061 -2.356109689571895e-06 3.04627251625061 -2.356109689571895e-06 C 3.04627251625061 -2.356109689571895e-06 6.09254264831543 2.467947721481323 6.09254264831543 5.512307643890381 C 6.09254264831543 8.556667327880859 3.04627251625061 11.02461719512939 3.04627251625061 11.02461719512939 Z"/>
      </g>
      <g id="Path_1016" data-name="Path 1016" class="cls-1" transform="translate(7.497 12.103) rotate(-45)">
        <path class="cls-3" d="M3.046,0S6.093,2.468,6.093,5.512s-3.046,5.512-3.046,5.512S0,8.557,0,5.512,3.046,0,3.046,0Z"/>
        <path class="cls-4" d="M 3.044246912002563 9.64802074432373 C 3.835194110870361 8.820130348205566 5.092541694641113 7.233110904693604 5.092541694641113 5.512304306030273 C 5.092548370361328 3.779340982437134 3.839532136917114 2.200588703155518 3.048349618911743 1.376531958580017 C 2.257402658462524 2.204422473907471 1.000001549720764 3.791497468948364 1.000001549720764 5.512304306030273 C 0.999994695186615 7.244959831237793 2.252540826797485 8.823432922363281 3.044246912002563 9.64802074432373 M 3.046271562576294 11.02461433410645 C 3.046271562576294 11.02461433410645 -8.437423275609035e-06 8.55666446685791 1.562576244396041e-06 5.512304306030273 C 1.562576244396041e-06 2.467944383621216 3.046271562576294 -5.69396979699377e-06 3.046271562576294 -5.69396979699377e-06 C 3.046271562576294 -5.69396979699377e-06 6.092551708221436 2.467944383621216 6.092541694641113 5.512304306030273 C 6.092541694641113 8.55666446685791 3.046271562576294 11.02461433410645 3.046271562576294 11.02461433410645 Z"/>
      </g>
      <g id="Path_1017" data-name="Path 1017" class="cls-1" transform="translate(9.624 13.542) rotate(-90)">
        <path class="cls-3" d="M3.046,0S6.093,2.468,6.093,5.512s-3.046,5.512-3.046,5.512S0,8.557,0,5.512,3.046,0,3.046,0Z"/>
        <path class="cls-4" d="M 3.044252872467041 9.648012161254883 C 3.835203170776367 8.820123672485352 5.092555046081543 7.233109474182129 5.092555046081543 5.512302875518799 C 5.092555046081543 3.779339551925659 3.839536666870117 2.200592041015625 3.048353433609009 1.376538038253784 C 2.257406234741211 2.204425573348999 1.000005125999451 3.79149603843689 1.000005125999451 5.512302875518799 C 1.000005125999451 7.244958400726318 2.252548933029175 8.823427200317383 3.044252872467041 9.648012161254883 M 3.04627513885498 11.02460289001465 C 3.04627513885498 11.02460289001465 5.138855158293154e-06 8.556662559509277 5.138855158293154e-06 5.512302875518799 C 5.138855158293154e-06 2.467942953109741 3.04627513885498 2.875518703149282e-06 3.04627513885498 2.875518703149282e-06 C 3.04627513885498 2.875518703149282e-06 6.092555046081543 2.467942953109741 6.092555046081543 5.512302875518799 C 6.092555046081543 8.556662559509277 3.04627513885498 11.02460289001465 3.04627513885498 11.02460289001465 Z"/>
      </g>
      <g id="Path_1018" data-name="Path 1018" class="cls-1" transform="translate(12.114 13.108) rotate(-135)">
        <path class="cls-3" d="M3.046,0S6.093,2.468,6.093,5.512s-3.046,5.512-3.046,5.512S0,8.557,0,5.512,3.046,0,3.046,0Z"/>
        <path class="cls-4" d="M 3.046278953552246 9.650127410888672 C 3.837879657745361 8.82608699798584 5.09255313873291 7.246346473693848 5.092546463012695 5.512306213378906 C 5.092546463012695 3.779342889785767 3.839533567428589 2.200596570968628 3.048353433609009 1.376542568206787 C 2.25740647315979 2.204430103302002 1.000006318092346 3.791499376296997 1.000006318092346 5.512306213378906 C 1.000006318092346 7.246346473693848 2.254677295684814 8.82608699798584 3.046278953552246 9.650127410888672 M 3.046276330947876 11.02461624145508 C 3.046276330947876 11.02461624145508 6.330948053800967e-06 8.556666374206543 6.330948053800967e-06 5.512306213378906 C 6.330948053800967e-06 2.467946290969849 3.046276330947876 6.213379037944833e-06 3.046276330947876 6.213379037944833e-06 C 3.046276330947876 6.213379037944833e-06 6.092546463012695 2.467946290969849 6.092546463012695 5.512306213378906 C 6.092556476593018 8.556666374206543 3.046276330947876 11.02461624145508 3.046276330947876 11.02461624145508 Z"/>
      </g>
      <g id="Path_1019" data-name="Path 1019" class="cls-1" transform="translate(13.552 11.025) rotate(180)">
        <path class="cls-3" d="M3.046,0S6.093,2.468,6.093,5.512s-3.046,5.512-3.046,5.512S0,8.557,0,5.512,3.046,0,3.046,0Z"/>
        <path class="cls-4" d="M 3.044250726699829 9.648021697998047 C 3.835197687149048 8.820130348205566 5.09254264831543 7.233114242553711 5.09254264831543 5.512307643890381 C 5.09254264831543 3.779344320297241 3.839529752731323 2.200593233108521 3.048349618911743 1.37653636932373 C 2.257402658462524 2.204427003860474 1.000002503395081 3.791500806808472 1.000002503395081 5.512307643890381 C 1.000002503395081 7.2449631690979 2.252543449401855 8.823433876037598 3.044250726699829 9.648021697998047 M 3.04627251625061 11.02461719512939 C 3.04627251625061 11.02461719512939 2.516250560802291e-06 8.556667327880859 2.516250560802291e-06 5.512307643890381 C 2.516250560802291e-06 2.467947721481323 3.04627251625061 -2.356109689571895e-06 3.04627251625061 -2.356109689571895e-06 C 3.04627251625061 -2.356109689571895e-06 6.09254264831543 2.467947721481323 6.09254264831543 5.512307643890381 C 6.09254264831543 8.556667327880859 3.04627251625061 11.02461719512939 3.04627251625061 11.02461719512939 Z"/>
      </g>
      <g id="Path_1020" data-name="Path 1020" class="cls-1" transform="translate(13.152 8.491) rotate(135)">
        <path class="cls-3" d="M3.046,0S6.093,2.468,6.093,5.512s-3.046,5.512-3.046,5.512S0,8.557,0,5.512,3.046,0,3.046,0Z"/>
        <path class="cls-4" d="M 3.044246912002563 9.64802074432373 C 3.835194110870361 8.820130348205566 5.092541694641113 7.233110904693604 5.092541694641113 5.512304306030273 C 5.092548370361328 3.779340982437134 3.839532136917114 2.200588703155518 3.048349618911743 1.376531958580017 C 2.257402658462524 2.204422473907471 1.000001549720764 3.791497468948364 1.000001549720764 5.512304306030273 C 0.999994695186615 7.244959831237793 2.252540826797485 8.823432922363281 3.044246912002563 9.64802074432373 M 3.046271562576294 11.02461433410645 C 3.046271562576294 11.02461433410645 -8.437423275609035e-06 8.55666446685791 1.562576244396041e-06 5.512304306030273 C 1.562576244396041e-06 2.467944383621216 3.046271562576294 -5.69396979699377e-06 3.046271562576294 -5.69396979699377e-06 C 3.046271562576294 -5.69396979699377e-06 6.092551708221436 2.467944383621216 6.092541694641113 5.512304306030273 C 6.092541694641113 8.55666446685791 3.046271562576294 11.02461433410645 3.046271562576294 11.02461433410645 Z"/>
      </g>
      <g id="Path_1021" data-name="Path 1021" class="cls-1" transform="translate(11.025 7.052) rotate(90)">
        <path class="cls-3" d="M3.046,0S6.093,2.468,6.093,5.512s-3.046,5.512-3.046,5.512S0,8.557,0,5.512,3.046,0,3.046,0Z"/>
        <path class="cls-4" d="M 3.044252872467041 9.648012161254883 C 3.835203170776367 8.820123672485352 5.092555046081543 7.233109474182129 5.092555046081543 5.512302875518799 C 5.092555046081543 3.779339551925659 3.839536666870117 2.200592041015625 3.048353433609009 1.376538038253784 C 2.257406234741211 2.204425573348999 1.000005125999451 3.79149603843689 1.000005125999451 5.512302875518799 C 1.000005125999451 7.244958400726318 2.252548933029175 8.823427200317383 3.044252872467041 9.648012161254883 M 3.04627513885498 11.02460289001465 C 3.04627513885498 11.02460289001465 5.138855158293154e-06 8.556662559509277 5.138855158293154e-06 5.512302875518799 C 5.138855158293154e-06 2.467942953109741 3.04627513885498 2.875518703149282e-06 3.04627513885498 2.875518703149282e-06 C 3.04627513885498 2.875518703149282e-06 6.092555046081543 2.467942953109741 6.092555046081543 5.512302875518799 C 6.092555046081543 8.556662559509277 3.04627513885498 11.02460289001465 3.04627513885498 11.02460289001465 Z"/>
      </g>
      <g id="Path_1022" data-name="Path 1022" class="cls-1" transform="translate(8.535 7.486) rotate(45)">
        <path class="cls-3" d="M3.046,0S6.093,2.468,6.093,5.512s-3.046,5.512-3.046,5.512S0,8.557,0,5.512,3.046,0,3.046,0Z"/>
        <path class="cls-4" d="M 3.046278953552246 9.650127410888672 C 3.837879657745361 8.82608699798584 5.09255313873291 7.246346473693848 5.092546463012695 5.512306213378906 C 5.092546463012695 3.779342889785767 3.839533567428589 2.200596570968628 3.048353433609009 1.376542568206787 C 2.25740647315979 2.204430103302002 1.000006318092346 3.791499376296997 1.000006318092346 5.512306213378906 C 1.000006318092346 7.246346473693848 2.254677295684814 8.82608699798584 3.046278953552246 9.650127410888672 M 3.046276330947876 11.02461624145508 C 3.046276330947876 11.02461624145508 6.330948053800967e-06 8.556666374206543 6.330948053800967e-06 5.512306213378906 C 6.330948053800967e-06 2.467946290969849 3.046276330947876 6.213379037944833e-06 3.046276330947876 6.213379037944833e-06 C 3.046276330947876 6.213379037944833e-06 6.092546463012695 2.467946290969849 6.092546463012695 5.512306213378906 C 6.092556476593018 8.556666374206543 3.046276330947876 11.02461624145508 3.046276330947876 11.02461624145508 Z"/>
      </g>
    </g>
  </g>
</svg>
