<svg xmlns="http://www.w3.org/2000/svg" viewBox="1989 -5067 40 40.548">
  <defs>
    <style>
      .cls-1 {
        fill: #8cbe43;
      }
    </style>
  </defs>
  <g id="Group_1017" data-name="Group 1017" transform="translate(1208.44 -5770.954)">
    <g id="file-settings" transform="translate(780.56 703.954)">
      <path id="Path_678" data-name="Path 678" class="cls-1" d="M26.424,39.541a3.514,3.514,0,0,1-3.041-1.756l-.017-.032H7.373a1.233,1.233,0,0,1-1.231-1.231V4.025A1.233,1.233,0,0,1,7.373,2.794H29.951a1.233,1.233,0,0,1,1.232,1.231V17.639A3.475,3.475,0,0,1,31.6,17.6h2.38V4.025A4.03,4.03,0,0,0,29.951,0H7.373A4.03,4.03,0,0,0,3.348,4.025v32.5a4.03,4.03,0,0,0,4.025,4.026H28.448a3.5,3.5,0,0,1-.36-1.427A3.5,3.5,0,0,1,26.424,39.541Z" transform="translate(-3.348)"/>
      <path id="Path_679" data-name="Path 679" class="cls-1" d="M95.827,114.266h9.08a1.4,1.4,0,1,0,0-2.794h-9.08a1.4,1.4,0,1,0,0,2.794Z" transform="translate(-86.98 -102.354)"/>
      <path id="Path_680" data-name="Path 680" class="cls-1" d="M109.1,198.263a1.4,1.4,0,0,0-1.4-1.4H95.827a1.4,1.4,0,1,0,0,2.794H107.7A1.4,1.4,0,0,0,109.1,198.263Z" transform="translate(-86.98 -180.763)"/>
      <path id="Path_681" data-name="Path 681" class="cls-1" d="M95.827,282.262a1.4,1.4,0,1,0,0,2.794h9.212a3.51,3.51,0,0,1,.255-.562l1.29-2.232Z" transform="translate(-86.98 -259.173)"/>
      <path id="Path_682" data-name="Path 682" class="cls-1" d="M94.43,369.06a1.4,1.4,0,0,0,1.4,1.4h9a3.508,3.508,0,0,1,1.64-2.794H95.827A1.4,1.4,0,0,0,94.43,369.06Z" transform="translate(-86.98 -337.59)"/>
      <path id="Path_683" data-name="Path 683" class="cls-1" d="M327.993,322.1a3.716,3.716,0,1,0,3.715,3.716A3.723,3.723,0,0,0,327.993,322.1Z" transform="translate(-298.022 -295.749)"/>
      <path id="Path_684" data-name="Path 684" class="cls-1" d="M266.46,252.887l-1.3-.751a4.976,4.976,0,0,0,0-2.02l1.3-.751a1.428,1.428,0,0,0,.662-.86,1.409,1.409,0,0,0-.144-1.074l-1.72-2.978a1.414,1.414,0,0,0-1.935-.519l-1.289.746a8.088,8.088,0,0,0-1.759-1.048v-1.46a1.415,1.415,0,0,0-1.416-1.416h-3.44A1.415,1.415,0,0,0,254,242.173v1.46a7.985,7.985,0,0,0-1.757,1.048l-1.294-.747a1.418,1.418,0,0,0-.708-.19,1.4,1.4,0,0,0-.367.049,1.419,1.419,0,0,0-.861.66l-1.72,2.979a1.417,1.417,0,0,0,.518,1.934l1.3.751a5.107,5.107,0,0,0,0,2.019l-1.3.751a1.418,1.418,0,0,0-.518,1.934l1.72,2.98a1.422,1.422,0,0,0,.861.659,1.407,1.407,0,0,0,1.074-.142l1.294-.745A8.048,8.048,0,0,0,254,258.622v1.458a1.415,1.415,0,0,0,1.416,1.416h3.44a1.415,1.415,0,0,0,1.416-1.416v-1.458a8.121,8.121,0,0,0,1.759-1.049l1.289.745a1.415,1.415,0,0,0,1.935-.517l1.72-2.98A1.415,1.415,0,0,0,266.46,252.887Zm-9.319,3.353a5.113,5.113,0,1,1,5.112-5.113A5.119,5.119,0,0,1,257.141,256.24Z" transform="translate(-227.17 -221.063)"/>
    </g>
  </g>
</svg>
