<svg xmlns="http://www.w3.org/2000/svg" xmlns:xlink="http://www.w3.org/1999/xlink" viewBox="4078 -5509 731 673.959">
  <defs>
    <style>
      .cls-1 {
        fill: none;
      }

      .cls-2, .cls-3 {
        fill: #b1b1b1;
        font-family: TwCenMT-Bold, Tw Cen MT;
        font-weight: 700;
        letter-spacing: 0.02em;
      }

      .cls-2 {
        font-size: 135px;
      }

      .cls-3 {
        font-size: 91px;
      }

      .cls-4, .cls-5 {
        stroke: none;
      }

      .cls-5 {
        fill: #8cbe43;
      }

      .cls-6 {
        filter: url(#KASKELEN);
      }

      .cls-7 {
        filter: url(#AGROPARK);
      }
    </style>
    <filter id="AGROPARK" x="4078" y="-5088.198" width="731" height="165" filterUnits="userSpaceOnUse">
      <feOffset dy="3" input="SourceAlpha"/>
      <feGaussianBlur stdDeviation="3" result="blur"/>
      <feFlood flood-opacity="0.502"/>
      <feComposite operator="in" in2="blur"/>
      <feComposite in="SourceGraphic"/>
    </filter>
    <filter id="KASKELEN" x="4223.439" y="-4952.041" width="441" height="117" filterUnits="userSpaceOnUse">
      <feOffset dy="3" input="SourceAlpha"/>
      <feGaussianBlur stdDeviation="3" result="blur-2"/>
      <feFlood flood-opacity="0.502"/>
      <feComposite operator="in" in2="blur-2"/>
      <feComposite in="SourceGraphic"/>
    </filter>
  </defs>
  <g id="Group_1051" data-name="Group 1051" transform="translate(3761 -5546.041)">
    <g id="Group_1050" data-name="Group 1050">
      <g id="Path_1014" data-name="Path 1014" class="cls-1" transform="translate(344.771 -48.584)">
        <path class="cls-4" d="M339.56,85.625,570.145,485.031,109,485.025Z"/>
        <path class="cls-5" d="M 544.164794921875 470.0302429199219 L 339.5603332519531 115.6269683837891 L 134.9771118164063 470.0251159667969 L 544.164794921875 470.0302429199219 M 570.1451416015625 485.0305786132813 L 108.9983291625977 485.0247802734375 L 339.5597534179688 85.62477874755859 L 570.1451416015625 485.0305786132813 Z"/>
      </g>
      <g id="Path_1217" data-name="Path 1217" class="cls-1" transform="translate(550.855 169.177)">
        <path class="cls-4" d="M133.635,0c73.8,0,133.635,59.447,133.635,132.778s-59.83,132.778-133.635,132.778S0,206.11,0,132.778,59.83,0,133.635,0Z"/>
        <path class="cls-5" d="M 133.6349334716797 253.5566253662109 C 200.7046661376953 253.5566253662109 255.2698822021484 199.3757171630859 255.2698822021484 132.7783050537109 C 255.2698822021484 66.18089294433594 200.7046661376953 11.99998664855957 133.6349334716797 11.99998664855957 C 66.56520843505859 11.99998664855957 12.00002479553223 66.18089294433594 12.00002479553223 132.7783050537109 C 12.00002479553223 199.3757171630859 66.56520843505859 253.5566253662109 133.6349334716797 253.5566253662109 M 133.6349334716797 265.5566101074219 C 59.83038711547852 265.5566101074219 2.438076990074478e-05 206.1097564697266 2.438076990074478e-05 132.7783050537109 C 2.438076990074478e-05 59.44689559936523 59.83038711547852 -1.312810763920425e-05 133.6349334716797 -1.312810763920425e-05 C 207.4394378662109 -1.312810763920425e-05 267.2698974609375 59.44689559936523 267.2698974609375 132.7783050537109 C 267.2698974609375 206.1097564697266 207.4394378662109 265.5566101074219 133.6349334716797 265.5566101074219 Z"/>
      </g>
      <g id="Path_1015" data-name="Path 1015" class="cls-1" transform="translate(642.229 293.103)">
        <path class="cls-4" d="M39.45,0S78.9,31.961,78.9,71.386s-39.45,71.386-39.45,71.386S0,110.812,0,71.386,39.45,0,39.45,0Z"/>
        <path class="cls-5" d="M 39.42351913452148 126.3090362548828 C 49.71192169189453 115.6856307983398 66.90052032470703 94.47718811035156 66.90052032470703 71.38617706298828 C 66.90052032470703 48.11796951293945 49.7719612121582 27.03284072875977 39.47761154174805 16.46267890930176 C 29.18920707702637 27.08608818054199 11.99999141693115 48.29516983032227 11.99999141693115 71.38617706298828 C 11.99999141693115 94.65034484863281 29.12264442443848 115.7322311401367 39.42351913452148 126.3090362548828 M 39.45025634765625 142.7723541259766 C 39.45025634765625 142.7723541259766 -8.358226295968052e-06 110.8116760253906 -8.358226295968052e-06 71.38617706298828 C -8.358226295968052e-06 31.9606761932373 39.45025634765625 5.924000561208231e-07 39.45025634765625 5.924000561208231e-07 C 39.45025634765625 5.924000561208231e-07 78.90052032470703 31.9606761932373 78.90052032470703 71.38617706298828 C 78.90052032470703 110.8116760253906 39.45025634765625 142.7723541259766 39.45025634765625 142.7723541259766 Z"/>
      </g>
      <g id="Path_1016" data-name="Path 1016" class="cls-1" transform="translate(647.852 325.346) rotate(-45)">
        <path class="cls-4" d="M39.45,0S78.9,31.961,78.9,71.386s-39.45,71.386-39.45,71.386S0,110.812,0,71.386,39.45,0,39.45,0Z"/>
        <path class="cls-5" d="M 39.42351913452148 126.3090362548828 C 49.71192169189453 115.6856307983398 66.90052032470703 94.47718811035156 66.90052032470703 71.38617706298828 C 66.90052032470703 48.11796951293945 49.7719612121582 27.03284072875977 39.47761154174805 16.46267890930176 C 29.18920707702637 27.08608818054199 11.99999141693115 48.29516983032227 11.99999141693115 71.38617706298828 C 11.99999141693115 94.65034484863281 29.12264442443848 115.7322311401367 39.42351913452148 126.3090362548828 M 39.45025634765625 142.7723541259766 C 39.45025634765625 142.7723541259766 -8.358226295968052e-06 110.8116760253906 -8.358226295968052e-06 71.38617706298828 C -8.358226295968052e-06 31.9606761932373 39.45025634765625 5.924000561208231e-07 39.45025634765625 5.924000561208231e-07 C 39.45025634765625 5.924000561208231e-07 78.90052032470703 31.9606761932373 78.90052032470703 71.38617706298828 C 78.90052032470703 110.8116760253906 39.45025634765625 142.7723541259766 39.45025634765625 142.7723541259766 Z"/>
      </g>
      <g id="Path_1017" data-name="Path 1017" class="cls-1" transform="translate(675.398 343.975) rotate(-90)">
        <path class="cls-4" d="M39.45,0S78.9,31.961,78.9,71.386s-39.45,71.386-39.45,71.386S0,110.812,0,71.386,39.45,0,39.45,0Z"/>
        <path class="cls-5" d="M 39.42351913452148 126.3090362548828 C 49.71192169189453 115.6856307983398 66.90052032470703 94.47718811035156 66.90052032470703 71.38617706298828 C 66.90052032470703 48.11796951293945 49.7719612121582 27.03284072875977 39.47761154174805 16.46267890930176 C 29.18920707702637 27.08608818054199 11.99999141693115 48.29516983032227 11.99999141693115 71.38617706298828 C 11.99999141693115 94.65034484863281 29.12264442443848 115.7322311401367 39.42351913452148 126.3090362548828 M 39.45025634765625 142.7723541259766 C 39.45025634765625 142.7723541259766 -8.358226295968052e-06 110.8116760253906 -8.358226295968052e-06 71.38617706298828 C -8.358226295968052e-06 31.9606761932373 39.45025634765625 5.924000561208231e-07 39.45025634765625 5.924000561208231e-07 C 39.45025634765625 5.924000561208231e-07 78.90052032470703 31.9606761932373 78.90052032470703 71.38617706298828 C 78.90052032470703 110.8116760253906 39.45025634765625 142.7723541259766 39.45025634765625 142.7723541259766 Z"/>
      </g>
      <g id="Path_1018" data-name="Path 1018" class="cls-1" transform="translate(707.64 338.353) rotate(-135)">
        <path class="cls-4" d="M39.45,0S78.9,31.961,78.9,71.386s-39.45,71.386-39.45,71.386S0,110.812,0,71.386,39.45,0,39.45,0Z"/>
        <path class="cls-5" d="M 39.42351913452148 126.3090362548828 C 49.71192169189453 115.6856307983398 66.90052032470703 94.47718811035156 66.90052032470703 71.38617706298828 C 66.90052032470703 48.11796951293945 49.7719612121582 27.03284072875977 39.47761154174805 16.46267890930176 C 29.18920707702637 27.08608818054199 11.99999141693115 48.29516983032227 11.99999141693115 71.38617706298828 C 11.99999141693115 94.65034484863281 29.12264442443848 115.7322311401367 39.42351913452148 126.3090362548828 M 39.45025634765625 142.7723541259766 C 39.45025634765625 142.7723541259766 -8.358226295968052e-06 110.8116760253906 -8.358226295968052e-06 71.38617706298828 C -8.358226295968052e-06 31.9606761932373 39.45025634765625 5.924000561208231e-07 39.45025634765625 5.924000561208231e-07 C 39.45025634765625 5.924000561208231e-07 78.90052032470703 31.9606761932373 78.90052032470703 71.38617706298828 C 78.90052032470703 110.8116760253906 39.45025634765625 142.7723541259766 39.45025634765625 142.7723541259766 Z"/>
      </g>
      <g id="Path_1019" data-name="Path 1019" class="cls-1" transform="translate(726.27 311.378) rotate(180)">
        <path class="cls-4" d="M39.45,0S78.9,31.961,78.9,71.386s-39.45,71.386-39.45,71.386S0,110.812,0,71.386,39.45,0,39.45,0Z"/>
        <path class="cls-5" d="M 39.42351913452148 126.3090362548828 C 49.71192169189453 115.6856307983398 66.90052032470703 94.47718811035156 66.90052032470703 71.38617706298828 C 66.90052032470703 48.11796951293945 49.7719612121582 27.03284072875977 39.47761154174805 16.46267890930176 C 29.18920707702637 27.08608818054199 11.99999141693115 48.29516983032227 11.99999141693115 71.38617706298828 C 11.99999141693115 94.65034484863281 29.12264442443848 115.7322311401367 39.42351913452148 126.3090362548828 M 39.45025634765625 142.7723541259766 C 39.45025634765625 142.7723541259766 -8.358226295968052e-06 110.8116760253906 -8.358226295968052e-06 71.38617706298828 C -8.358226295968052e-06 31.9606761932373 39.45025634765625 5.924000561208231e-07 39.45025634765625 5.924000561208231e-07 C 39.45025634765625 5.924000561208231e-07 78.90052032470703 31.9606761932373 78.90052032470703 71.38617706298828 C 78.90052032470703 110.8116760253906 39.45025634765625 142.7723541259766 39.45025634765625 142.7723541259766 Z"/>
      </g>
      <g id="Path_1020" data-name="Path 1020" class="cls-1" transform="translate(721.085 278.565) rotate(135)">
        <path class="cls-4" d="M39.45,0S78.9,31.961,78.9,71.386s-39.45,71.386-39.45,71.386S0,110.812,0,71.386,39.45,0,39.45,0Z"/>
        <path class="cls-5" d="M 39.42351913452148 126.3090362548828 C 49.71192169189453 115.6856307983398 66.90052032470703 94.47718811035156 66.90052032470703 71.38617706298828 C 66.90052032470703 48.11796951293945 49.7719612121582 27.03284072875977 39.47761154174805 16.46267890930176 C 29.18920707702637 27.08608818054199 11.99999141693115 48.29516983032227 11.99999141693115 71.38617706298828 C 11.99999141693115 94.65034484863281 29.12264442443848 115.7322311401367 39.42351913452148 126.3090362548828 M 39.45025634765625 142.7723541259766 C 39.45025634765625 142.7723541259766 -8.358226295968052e-06 110.8116760253906 -8.358226295968052e-06 71.38617706298828 C -8.358226295968052e-06 31.9606761932373 39.45025634765625 5.924000561208231e-07 39.45025634765625 5.924000561208231e-07 C 39.45025634765625 5.924000561208231e-07 78.90052032470703 31.9606761932373 78.90052032470703 71.38617706298828 C 78.90052032470703 110.8116760253906 39.45025634765625 142.7723541259766 39.45025634765625 142.7723541259766 Z"/>
      </g>
      <g id="Path_1021" data-name="Path 1021" class="cls-1" transform="translate(693.539 259.935) rotate(90)">
        <path class="cls-4" d="M39.45,0S78.9,31.961,78.9,71.386s-39.45,71.386-39.45,71.386S0,110.812,0,71.386,39.45,0,39.45,0Z"/>
        <path class="cls-5" d="M 39.42351913452148 126.3090362548828 C 49.71192169189453 115.6856307983398 66.90052032470703 94.47718811035156 66.90052032470703 71.38617706298828 C 66.90052032470703 48.11796951293945 49.7719612121582 27.03284072875977 39.47761154174805 16.46267890930176 C 29.18920707702637 27.08608818054199 11.99999141693115 48.29516983032227 11.99999141693115 71.38617706298828 C 11.99999141693115 94.65034484863281 29.12264442443848 115.7322311401367 39.42351913452148 126.3090362548828 M 39.45025634765625 142.7723541259766 C 39.45025634765625 142.7723541259766 -8.358226295968052e-06 110.8116760253906 -8.358226295968052e-06 71.38617706298828 C -8.358226295968052e-06 31.9606761932373 39.45025634765625 5.924000561208231e-07 39.45025634765625 5.924000561208231e-07 C 39.45025634765625 5.924000561208231e-07 78.90052032470703 31.9606761932373 78.90052032470703 71.38617706298828 C 78.90052032470703 110.8116760253906 39.45025634765625 142.7723541259766 39.45025634765625 142.7723541259766 Z"/>
      </g>
      <g id="Path_1022" data-name="Path 1022" class="cls-1" transform="translate(661.296 265.557) rotate(45)">
        <path class="cls-4" d="M39.45,0S78.9,31.961,78.9,71.386s-39.45,71.386-39.45,71.386S0,110.812,0,71.386,39.45,0,39.45,0Z"/>
        <path class="cls-5" d="M 39.42351913452148 126.3090362548828 C 49.71192169189453 115.6856307983398 66.90052032470703 94.47718811035156 66.90052032470703 71.38617706298828 C 66.90052032470703 48.11796951293945 49.7719612121582 27.03284072875977 39.47761154174805 16.46267890930176 C 29.18920707702637 27.08608818054199 11.99999141693115 48.29516983032227 11.99999141693115 71.38617706298828 C 11.99999141693115 94.65034484863281 29.12264442443848 115.7322311401367 39.42351913452148 126.3090362548828 M 39.45025634765625 142.7723541259766 C 39.45025634765625 142.7723541259766 -8.358226295968052e-06 110.8116760253906 -8.358226295968052e-06 71.38617706298828 C -8.358226295968052e-06 31.9606761932373 39.45025634765625 5.924000561208231e-07 39.45025634765625 5.924000561208231e-07 C 39.45025634765625 5.924000561208231e-07 78.90052032470703 31.9606761932373 78.90052032470703 71.38617706298828 C 78.90052032470703 110.8116760253906 39.45025634765625 142.7723541259766 39.45025634765625 142.7723541259766 Z"/>
      </g>
    </g>
    <g class="cls-7" transform="matrix(1, 0, 0, 1, -3761, 5546.04)">
      <text id="AGROPARK-2" data-name="AGROPARK" class="cls-2" transform="translate(4087 -4966.2)"><tspan x="0" y="0">AGROPARK</tspan></text>
    </g>
    <g class="cls-6" transform="matrix(1, 0, 0, 1, -3761, 5546.04)">
      <text id="KASKELEN-2" data-name="KASKELEN" class="cls-3" transform="translate(4232.44 -4868.04)"><tspan x="0" y="0">KASKELEN</tspan></text>
    </g>
  </g>
</svg>
