<svg xmlns="http://www.w3.org/2000/svg" viewBox="1987 -5272 45 36.563">
  <defs>
    <style>
      .cls-1 {
        fill: #8cbe43;
      }
    </style>
  </defs>
  <g id="map-with-placeholder" transform="translate(1987 -5272)">
    <path id="Path_1002" data-name="Path 1002" class="cls-1" d="M36.563,48a7.033,7.033,0,0,0-6.389,9.97L36.563,70.5l6.389-12.53A7.033,7.033,0,0,0,36.563,48Zm0,11.25a4.219,4.219,0,1,1,4.219-4.219A4.22,4.22,0,0,1,36.563,59.25Zm2.1,13.313,2.56,5.117-6.49,3.244L32.561,70.041l.365-.365.038-.038L31.624,67l-.687.687L22.5,62.063l-8.437,5.625L8.438,62.063,0,78.938l11.25,5.625L22.5,78.938l11.25,5.625L45,78.938l-4.746-9.489ZM10.261,80.923,3.774,77.68,9.207,66.809l2.867,2.867.365.365ZM21.094,76.5l-7.866,3.933,2.032-10.16.363-.242,5.471-3.647Zm2.813,0V66.38l5.471,3.647.36.242,2.032,10.16Z" transform="translate(0 -48)"/>
  </g>
</svg>
