<svg xmlns="http://www.w3.org/2000/svg" viewBox="1989 -4997 40 38.436">
  <defs>
    <style>
      .cls-1 {
        fill: #8cbe43;
      }
    </style>
  </defs>
  <g id="stock" transform="translate(1989 -4997)">
    <g id="Group_1003" data-name="Group 1003" transform="translate(0 0)">
      <g id="Group_1002" data-name="Group 1002">
        <path id="Path_1008" data-name="Path 1008" class="cls-1" d="M0,14.988V20.32H40V10.009Z" transform="translate(0 -10.009)"/>
      </g>
    </g>
    <g id="Group_1005" data-name="Group 1005" transform="translate(11.797 25.936)">
      <g id="Group_1004" data-name="Group 1004">
        <path id="Path_1009" data-name="Path 1009" class="cls-1" d="M154.906,341.991v1.563h-2.344v-1.562H151V345.9h5.469v-3.906Z" transform="translate(-151 -341.991)"/>
      </g>
    </g>
    <g id="Group_1007" data-name="Group 1007" transform="translate(0 12.655)">
      <g id="Group_1006" data-name="Group 1006">
        <path id="Path_1010" data-name="Path 1010" class="cls-1" d="M0,171.991v25.781H5.547V175.116H34.453v22.656H40V171.991Z" transform="translate(0 -171.991)"/>
      </g>
    </g>
    <g id="Group_1009" data-name="Group 1009" transform="translate(7.891 18.124)">
      <g id="Group_1008" data-name="Group 1008">
        <rect id="Rectangle_13" data-name="Rectangle 13" class="cls-1" width="24.219" height="1.562"/>
      </g>
    </g>
    <g id="Group_1011" data-name="Group 1011" transform="translate(7.891 22.03)">
      <g id="Group_1010" data-name="Group 1010">
        <path id="Path_1011" data-name="Path 1011" class="cls-1" d="M101,291.991V308.4h1.563V293.554h10.156V308.4h1.563V299.8h10.156V308.4h.781V291.991Z" transform="translate(-101 -291.991)"/>
      </g>
    </g>
    <g id="Group_1013" data-name="Group 1013" transform="translate(23.516 32.186)">
      <g id="Group_1012" data-name="Group 1012">
        <path id="Path_1012" data-name="Path 1012" class="cls-1" d="M304.906,421.991v1.563h-2.344v-1.563H301v6.25h5.469v-6.25Z" transform="translate(-301 -421.991)"/>
      </g>
    </g>
    <g id="Group_1015" data-name="Group 1015" transform="translate(11.797 32.186)">
      <g id="Group_1014" data-name="Group 1014">
        <path id="Path_1013" data-name="Path 1013" class="cls-1" d="M154.906,421.991v1.563h-2.344v-1.563H151v6.25h5.469v-6.25Z" transform="translate(-151 -421.991)"/>
      </g>
    </g>
  </g>
</svg>
